<svg xmlns="http://www.w3.org/2000/svg" xmlns:xlink="http://www.w3.org/1999/xlink" viewBox="0,0,256,256" width="48px" height="48px"><g fill="#ffffff" fill-rule="nonzero" stroke="none" stroke-width="1" stroke-linecap="butt" stroke-linejoin="miter" stroke-miterlimit="10" stroke-dasharray="" stroke-dashoffset="0" font-family="none" font-weight="none" font-size="none" text-anchor="none" style="mix-blend-mode: normal"><g transform="scale(5.12,5.12)"><path d="M25,2c-12.64545,0 -23,10.35455 -23,23c0,12.64545 10.35455,23 23,23c12.64545,0 23,-10.35455 23,-23c0,-12.64545 -10.35455,-23 -23,-23zM25,4c11.55454,0 21,9.44546 21,21c0,0.09372 -0.00657,0.18586 -0.00781,0.2793c-0.63654,-0.06572 -1.37274,-0.12735 -2.30859,-0.16602c-1.33433,-0.05513 -3.01571,-0.04281 -4.91602,0.05664c0.07474,-0.50462 0.12559,-1.01694 0.12695,-1.54297c0.09683,-1.87262 -0.53201,-3.62449 -1.55469,-5.17187c0.24707,-0.85373 0.5369,-1.93986 0.60938,-3.17187c0.0826,-1.40428 -0.03862,-2.96144 -1.16602,-4.01367l-0.28906,-0.26953h-0.39453c-2.68307,0 -4.51959,1.12321 -5.64258,2.01367c-1.6215,-0.62765 -3.44481,-1.01367 -5.45703,-1.01367c-2.02363,0 -3.86447,0.39142 -5.55273,1.01758c-1.12235,-0.89089 -2.96048,-2.01758 -5.64648,-2.01758h-0.39258l-0.28906,0.26758c-1.09819,1.01974 -1.19936,2.53418 -1.13086,3.93164c0.06041,1.23229 0.33345,2.35292 0.57617,3.24805c-1.03996,1.57759 -1.66406,3.37475 -1.66406,5.15234c0,0.50146 0.04641,0.99049 0.11328,1.47266c-3.12421,-0.10128 -5.49492,-0.01896 -7.00977,0.11914c-0.00058,-0.06408 -0.00391,-0.12719 -0.00391,-0.19141c0,-11.55454 9.44546,-21 21,-21zM14.39648,13.13086c2.01758,0.19118 3.53551,1.09211 4.23828,1.7168l0.46875,0.41406l0.57813,-0.23633c1.58145,-0.65119 3.34534,-1.02539 5.31836,-1.02539c1.97302,0 3.73739,0.37608 5.19922,1.01563l0.58594,0.25781l0.47852,-0.42578c0.70301,-0.6249 2.22351,-1.5261 4.24219,-1.7168c0.2684,0.44498 0.50163,1.07781 0.44531,2.03516c-0.0674,1.14572 -0.37387,2.39364 -0.60547,3.13477l-0.15039,0.48242l0.29883,0.4082c0.98947,1.34928 1.49398,2.80953 1.4082,4.35352l-0.00195,0.02734v0.02734c0,2.49545 -0.89861,4.49273 -2.8125,5.97266c-1.91384,1.47993 -4.93523,2.42773 -9.1875,2.42773c-4.25227,0 -7.27556,-0.94781 -9.18945,-2.42773c-1.91389,-1.47993 -2.81055,-3.4772 -2.81055,-5.97266c0,-1.46471 0.52892,-3.07601 1.50586,-4.4082l0.29297,-0.39844l-0.14062,-0.47461c-0.23173,-0.78787 -0.51577,-2.06426 -0.57227,-3.2168c-0.04699,-0.95862 0.17989,-1.56453 0.41016,-1.9707zM8.88672,26.01953c0.7042,0.0045 1.51102,0.03241 2.31641,0.06055c0.07838,0.31957 0.17145,0.63279 0.28125,0.93945c-3.31343,0.07201 -5.77998,0.41492 -7.30078,0.70898c-0.06645,-0.50662 -0.11716,-1.01813 -0.14648,-1.53516c1.11744,-0.10349 2.71311,-0.18749 4.84961,-0.17383zM41.11328,26.07617c2.12956,-0.02477 3.72152,0.08796 4.84375,0.20703c-0.02936,0.48114 -0.07711,0.95761 -0.13867,1.42969c-1.57279,-0.29937 -4.10115,-0.64156 -7.50391,-0.69727c0.0974,-0.27328 0.17748,-0.55432 0.25,-0.83789c0.89822,-0.0512 1.77391,-0.09255 2.54883,-0.10156zM37.89258,28.00781c3.57307,0.03197 6.19274,0.38911 7.77344,0.69141c-1.34068,7.46807 -6.65766,13.59353 -13.66602,16.08984v-5.18945c0,-1.58457 -0.52036,-3.3319 -1.42578,-4.78906c-0.2749,-0.44241 -0.59827,-0.86081 -0.95898,-1.23633c2.31522,-0.45738 4.21713,-1.2754 5.69727,-2.41992c1.13046,-0.87413 1.98451,-1.94544 2.58008,-3.14648zM11.9082,28.01367c0.59685,1.19835 1.45134,2.26782 2.58008,3.14063c1.54054,1.19123 3.54334,2.02354 5.98828,2.46875c-0.31986,0.32865 -0.61078,0.68955 -0.86914,1.07031l-0.06055,-0.05273c0.0055,-0.0063 -0.49713,0.24525 -1.24805,0.3125c-0.75092,0.06725 -1.67721,0.04688 -2.49805,0.04688c-1.225,0 -1.76457,-0.57879 -2.62695,-1.63281c-0.47755,-0.64363 -1.05973,-1.16486 -1.625,-1.56055c-0.57881,-0.40517 -1.07257,-0.69113 -1.68359,-0.79297l-0.08203,-0.01367h-0.08398c-0.46667,0 -0.91824,0.03379 -1.33984,0.51563c-0.2108,0.24092 -0.3561,0.68694 -0.26172,1.06445c0.09438,0.37752 0.3332,0.6095 0.54688,0.75195c1.36672,0.91115 1.60826,2.71448 2.46484,4.31836c0.79992,1.59392 2.52629,2.34961 4.29102,2.34961h2.59961v4.78906c-7.00283,-2.49435 -12.31621,-8.61221 -13.66211,-16.07227c1.52564,-0.29739 4.07694,-0.65295 7.57031,-0.70312zM23.69922,34.09961h2.80078c0.81282,0 1.68042,0.64779 2.375,1.76563c0.69458,1.11783 1.125,2.61894 1.125,3.73438v5.79102c-1.60395,0.39525 -3.27809,0.60938 -5,0.60938c-1.72191,0 -3.39605,-0.21412 -5,-0.60937v-5.79102c0,-1.09074 0.46783,-2.5883 1.20898,-3.71094c0.74116,-1.12264 1.67741,-1.78906 2.49023,-1.78906zM12.30859,35.28125c0.86577,0.89801 1.91393,1.71875 3.49219,1.71875c0.77917,0 1.7517,0.02807 2.67578,-0.05469c0.00329,-0.00029 0.00648,-0.00166 0.00977,-0.00195c-0.12175,0.35 -0.21258,0.70217 -0.28906,1.05664h-2.79687c-1.23333,0 -2.10462,-0.44557 -2.50586,-1.24805l-0.00781,-0.01367l-0.00586,-0.01172c-0.1644,-0.30537 -0.38021,-0.91597 -0.57226,-1.44531z"></path></g></g></svg>